<svg version="1.1" id="Layer_1" xmlns="http://www.w3.org/2000/svg" xmlns:xlink="http://www.w3.org/1999/xlink" x="0px" y="0px"
	height="169" width="250" viewBox="0 0 169 250" enable-background="new 0 0 169 250" xml:space="preserve">
<path fill="#4B4F4E" d="M84.043,87.788c-44.446,0-80.476,36.03-80.476,80.477c0,44.444,36.03,80.475,80.476,80.475
	c44.445,0,80.477-36.03,80.477-80.475C164.52,123.818,128.488,87.788,84.043,87.788z M84.043,235.862
	c-37.274,0-67.6-30.324-67.6-67.598c0-37.275,30.326-67.601,67.6-67.601c37.275,0,67.601,30.326,67.601,67.601
	C151.644,205.538,121.318,235.862,84.043,235.862z"/>
<path fill="#4B4F4E" d="M91.396,2.352c-14.774-4.294-30.201,4.87-35.85,18.659c-2.512,6.132-2.71,12.797-1.188,19.179
	c1.435,6.018,5.144,10.972,9.568,15.125c0-1.722,0-3.443,0-5.165c0-1.139-0.779-2.093-1.275-3.103
	c-0.671-1.444-1.15-2.943-1.575-4.475c-1.644-6.157-0.491-12.613,2.642-18.091c3.495-6.696,11.559-10.677,18.874-10.914
	c3.546-0.115,6.932,0.044,10.305,1.279c3.61,1.322,6.848,3.545,9.352,6.462c4.332,5.049,6.262,11.733,5.431,18.324
	c-0.509,4.037-2.221,8.082-4.611,11.37c-0.294,0.404-0.617,0.428-0.617,0.916c0,0.53,0,1.06,0,1.59c0,0.914,0,1.829,0,2.743
	c4.794-2.713,8.454-8.501,10.304-13.545c1.824-4.975,2.354-10.536,1.345-15.747C111.833,15.258,103.006,5.436,91.396,2.352"/>
<path fill="#4B4F4E" d="M93.7,38.175H74.386c-3.555,0-7.009,2.535-7.009,6.091V63.58c0,3.556,2.875,6.438,6.325,6.438V77.1
	c0,3.556,3.566,6.5,7.122,6.5h6.439c3.557,0,5.988-2.945,5.988-6.5v-7.082c3.45,0,6.325-2.882,6.325-6.438V44.266
	C99.576,40.71,97.256,38.175,93.7,38.175z"/>
<g>
	<path fill="#4B4F4E" d="M166.171,91.689l-8.193-8.195c-1.51-1.508-4.046-1.417-5.555,0.091l-8.194,8.195
		c-1.509,1.508-1.509,3.954,0,5.463l-3.004,3.004c-1.508,1.508-1.601,4.045-0.091,5.554l2.731,2.732
		c1.508,1.508,4.045,1.417,5.553-0.091l3.005-3.005c1.509,1.51,3.955,1.508,5.463,0l8.195-8.193
		C167.589,95.734,167.681,93.199,166.171,91.689z"/>
	<path fill="#4B4F4E" d="M2.071,91.689l8.194-8.195c1.509-1.508,4.045-1.417,5.553,0.091l8.195,8.195
		c1.508,1.508,1.508,3.954,0,5.463l3.004,3.004c1.508,1.508,1.6,4.045,0.091,5.554l-2.731,2.732
		c-1.508,1.508-4.045,1.417-5.554-0.091l-3.005-3.005c-1.508,1.51-3.954,1.508-5.462,0l-8.194-8.193
		C0.653,95.734,0.562,93.199,2.071,91.689z"/>
</g>
<g>
	<path fill="#4B4F4E" d="M116.666,136.284c0,0-20.706,16.365-30.586,24.373c-0.651-0.175-1.332-0.276-2.037-0.276
		c-4.354,0-7.883,3.529-7.883,7.884c0,4.353,3.529,7.881,7.883,7.881c4.354,0,7.883-3.528,7.883-7.881
		c0-0.297-0.02-0.588-0.051-0.875C99.714,157.733,116.666,136.284,116.666,136.284z M84.043,173.023
		c-2.629,0-4.761-2.131-4.761-4.759c0-2.631,2.132-4.762,4.761-4.762c2.63,0,4.761,2.131,4.761,4.762
		C88.804,170.893,86.673,173.023,84.043,173.023z"/>
</g>
<path fill="#4B4F4E" d="M84.043,104.029c-35.477,0-64.235,28.758-64.235,64.236c0,35.477,28.758,64.233,64.235,64.233
	s64.235-28.757,64.235-64.233C148.278,132.787,119.52,104.029,84.043,104.029z M84.043,229.279
	c-33.644,0-61.016-27.372-61.016-61.015c0-33.645,27.372-61.017,61.016-61.017c33.644,0,61.017,27.372,61.017,61.017
	C145.06,201.907,117.687,229.279,84.043,229.279z"/>
<g>
	<g>
		<circle fill="#4B4F4E" cx="84.043" cy="115.419" r="3.195"/>
		<circle fill="#4B4F4E" cx="84.043" cy="221.362" r="3.195"/>
	</g>
	<g>
		<circle fill="#4B4F4E" cx="121.5" cy="130.934" r="3.195"/>
		<circle fill="#4B4F4E" cx="46.586" cy="205.848" r="3.195"/>
	</g>
	<g>
		<circle fill="#4B4F4E" cx="137.016" cy="168.391" r="3.195"/>
		<circle fill="#4B4F4E" cx="31.071" cy="168.391" r="3.195"/>
	</g>
	<g>
		<circle fill="#4B4F4E" cx="121.5" cy="205.848" r="3.195"/>
		<circle fill="#4B4F4E" cx="46.586" cy="130.934" r="3.196"/>
	</g>
</g>
</svg>